<svg xmlns="http://www.w3.org/2000/svg" width="24" height="24" viewBox="0 0 24 24">
  <g id="Group_171936" data-name="Group 171936" transform="translate(-231 -10)">
    <rect id="Rectangle_148004" data-name="Rectangle 148004" width="24" height="24" transform="translate(231 10)" fill="#fff" opacity="0"/>
    <g id="Group_153648" data-name="Group 153648" transform="translate(233 12.001)">
      <path id="Path_22" data-name="Path 22" d="M9.336,2.126a1.74,1.74,0,0,0,2.586,0l.841-.923A1.742,1.742,0,0,1,15.8,2.459L15.733,3.7a1.741,1.741,0,0,0,1.824,1.827L18.8,5.468A1.742,1.742,0,0,1,20.056,8.5l-.927.836a1.743,1.743,0,0,0,0,2.587l.927.836A1.742,1.742,0,0,1,18.8,15.792l-1.245-.063a1.741,1.741,0,0,0-1.828,1.828l.063,1.245a1.742,1.742,0,0,1-3.025,1.254l-.837-.926a1.742,1.742,0,0,0-2.586,0l-.84.926A1.742,1.742,0,0,1,5.471,18.8l.064-1.245A1.741,1.741,0,0,0,3.707,15.73l-1.245.063A1.741,1.741,0,0,1,1.2,12.764l.926-.836a1.743,1.743,0,0,0,0-2.587L1.2,8.5A1.741,1.741,0,0,1,2.456,5.471L3.7,5.535A1.741,1.741,0,0,0,5.531,3.7l-.06-1.246A1.742,1.742,0,0,1,8.5,1.2Z" transform="translate(-0.63 -0.629)" fill="none" stroke="#585858" stroke-linecap="round" stroke-linejoin="round" stroke-width="1.5"/>
      <path id="Path_23" data-name="Path 23" d="M6.25,10.877a4.626,4.626,0,1,0,4.626-4.626A4.626,4.626,0,0,0,6.25,10.877Z" transform="translate(-0.876 -0.875)" fill="none" stroke="#585858" stroke-linecap="round" stroke-linejoin="round" stroke-width="1.5"/>
    </g>
  </g>
</svg>
